# xmcd
#
# Track frame offsets:
#	150
#	23107
#	42337
#	62270
#	80267
#	94209
#	114109
#	128752
#	146711
#	162314
#	179555
#	193403
#	211869
#	231722
#	244230
#	253572
#	271736
#	279449
#
# Disc length: 3877 seconds
#
# Revision: 1
# Processed by: cddbd v1.5.2PL0 Copyright (c) Steve Scherf et al.
# Submitted via: audiograbber 1.83.01
#
DISCID=010f2312
DTITLE=Sven Duijff - My love for music
DYEAR=2011
DGENRE=Pop
TTITLE0=Sven Duijff - Feeling good
TTITLE1=Sven Duijff - Cry me a river
TTITLE2=Sven Duijff - At this moment
TTITLE3=Sven Duijff - Haven't met you yet
TTITLE4=Sven Duijff - Georgia on my mind
TTITLE5=Sven Duijff - Me and Mrs. Jones
TTITLE6=Sven Duijff - This ain't gonna work
TTITLE7=Sven Duijff - Love is everywhere
TTITLE8=Sven Duijff - Crazy love
TTITLE9=Sven Duijff - Heartache tonight
TTITLE10=Sven Duijff - Some kind of wonderful
TTITLE11=Sven Duijff - Hollywood
TTITLE12=Sven Duijff - Laat me - Vivre
TTITLE13=Sven Duijff - I've got the world on a string
TTITLE14=Sven Duijff - Let it snow. Let it snow. Let it snow.
TTITLE15=Sven Duijff - Driving home for christmas
TTITLE16=Sven Duijff - Jingle bells
TTITLE17=Sven Duijff - Most wonderful time of the year
EXTD=
EXTT0=
EXTT1=
EXTT2=
EXTT3=
EXTT4=
EXTT5=
EXTT6=
EXTT7=
EXTT8=
EXTT9=
EXTT10=
EXTT11=
EXTT12=
EXTT13=
EXTT14=
EXTT15=
EXTT16=
EXTT17=
PLAYORDER=
